<?xml version="1.0" standalone="no"?>
<!DOCTYPE svg PUBLIC "-//W3C//DTD SVG 20010904//EN"
 "http://www.w3.org/TR/2001/REC-SVG-20010904/DTD/svg10.dtd">
<svg version="1.0" xmlns="http://www.w3.org/2000/svg"
 width="700.000000pt" height="700.000000pt" viewBox="0 0 700.000000 700.000000"
 preserveAspectRatio="xMidYMid meet">
<metadata>
Created by potrace 1.11, written by Peter Selinger 2001-2013
</metadata>
<g transform="translate(0.000000,700.000000) scale(0.100000,-0.100000)"
fill="#000000" stroke="none">
<path d="M5489 6525 c-25 -8 -63 -27 -86 -42 -22 -16 -185 -161 -361 -323
-303 -277 -321 -295 -304 -311 9 -9 287 -263 617 -564 330 -301 616 -563 636
-582 l37 -35 333 306 c184 168 344 321 357 340 28 41 52 116 52 161 0 45 -24
120 -52 161 -13 19 -218 214 -456 432 -496 455 -510 465 -646 469 -49 2 -99
-3 -127 -12z"/>
<path d="M570 5670 l0 -39 108 -3 107 -3 3 -342 2 -343 40 0 40 0 0 345 0 345
105 0 105 0 0 40 0 40 -255 0 -255 0 0 -40z"/>
<path d="M1160 5325 l0 -385 195 0 195 0 0 45 0 45 -155 0 -155 0 0 140 0 140
145 0 145 0 0 45 0 45 -145 0 -146 0 3 113 3 112 148 3 147 3 0 39 0 40 -190
0 -190 0 0 -385z"/>
<path d="M1752 5531 l93 -179 -54 -103 c-30 -57 -78 -150 -108 -206 l-55 -103
45 0 46 0 82 160 c55 106 86 156 93 150 6 -4 45 -76 86 -159 l74 -151 43 0
c24 0 43 3 43 6 0 3 -45 93 -101 200 l-101 194 97 185 96 185 -46 0 -45 0 -55
-109 c-30 -61 -63 -124 -74 -141 l-19 -32 -72 141 -73 141 -44 0 -44 0 93
-179z"/>
<path d="M2160 5670 l0 -40 105 0 105 0 0 -345 0 -345 40 0 40 0 2 343 3 342
108 3 107 3 0 39 0 40 -255 0 -255 0 0 -40z"/>
<path d="M3418 4673 c-503 -461 -1377 -1261 -1941 -1778 l-1027 -940 0 -597 0
-598 658 1 657 0 350 322 c193 177 1065 976 1938 1776 l1588 1454 -38 37 c-49
48 -1233 1131 -1255 1148 -14 11 -135 -97 -930 -825z m1082 -205 c85 -78 155
-147 155 -154 0 -6 -715 -667 -1590 -1468 l-1590 -1456 -163 0 -162 0 2 158 3
159 1085 994 c597 546 1310 1199 1585 1451 275 252 504 458 510 458 6 0 80
-64 165 -142z"/>
<path d="M4460 2177 c-107 -24 -170 -88 -170 -174 0 -90 57 -140 190 -168 41
-9 97 -21 123 -27 27 -6 61 -21 78 -35 39 -33 42 -101 5 -138 -53 -53 -204
-58 -330 -11 l-66 25 0 -44 c0 -43 1 -45 38 -55 228 -61 432 -24 478 86 32 76
6 169 -58 210 -41 27 -78 39 -202 63 -113 23 -142 38 -151 80 -26 119 167 163
370 85 14 -6 16 0 13 37 l-3 44 -53 11 c-87 20 -202 24 -262 11z"/>
<path d="M5934 2181 c-62 -10 -147 -48 -189 -84 -17 -14 -44 -49 -60 -79 -25
-45 -30 -67 -33 -144 -5 -114 12 -173 70 -239 45 -52 107 -86 187 -105 77 -18
230 -8 306 20 98 37 96 33 93 184 l-3 131 -132 3 -133 3 0 -36 0 -35 80 0 80
0 0 -89 0 -89 -37 -14 c-22 -7 -80 -13 -134 -13 -87 0 -101 3 -154 30 -52 27
-63 38 -90 89 -25 50 -30 70 -30 135 0 131 46 207 148 246 34 13 68 16 143 13
87 -3 107 -7 168 -35 37 -18 70 -33 73 -33 2 0 3 19 1 42 -3 36 -8 45 -32 57
-79 37 -227 57 -322 42z"/>
<path d="M4894 2163 c4 -10 69 -156 144 -326 l137 -307 59 2 58 3 139 309 c77
170 139 316 139 323 0 17 -84 18 -97 1 -5 -7 -61 -129 -123 -270 -63 -142
-116 -255 -119 -252 -4 3 -58 123 -122 267 l-115 262 -53 3 c-48 3 -53 1 -47
-15z"/>
</g>
</svg>
